<svg xmlns="http://www.w3.org/2000/svg"  viewBox="0 0 520 520" width="64px" height="64px"><path d="M 125 20 C 105.701 20 90 35.701 90 55 C 90 74.299 105.701 90 125 90 C 144.299 90 160 74.299 160 55 C 160 35.701 144.299 20 125 20 z M 125 40 C 133.271 40 140 46.729 140 55 C 140 63.271 133.271 70 125 70 C 116.729 70 110 63.271 110 55 C 110 46.729 116.729 40 125 40 z M 360 40 A 10 10 0 0 0 360 60 A 10 10 0 0 0 360 40 z M 455 50 C 441.215 50 430 61.215 430 75 C 430 88.785 441.215 100 455 100 C 468.785 100 480 88.785 480 75 C 480 61.215 468.785 50 455 50 z M 397.79297 69.447266 C 395.11605 69.389357 392.4682 70.407484 390.50195 72.373047 L 362.72852 100.14844 C 332.08952 80.401438 296.755 70 260 70 C 155.234 70 70 155.234 70 260 C 70 364.767 155.234 450 260 450 C 364.767 450 450 364.767 450 260 C 450 222.959 439.44611 187.39456 419.41211 156.60156 L 447.07031 128.94336 C 449.92931 126.08336 450.78528 121.78192 449.23828 118.04492 C 447.69028 114.30792 444.045 111.87109 440 111.87109 L 407.57227 111.87109 L 407.57227 79.445312 C 407.57227 75.401313 405.13639 71.753078 401.40039 70.205078 C 400.23258 69.721328 399.00975 69.473588 397.79297 69.447266 z M 455 70 C 457.757 70 460 72.243 460 75 C 460 77.757 457.757 80 455 80 C 452.243 80 450 77.757 450 75 C 450 72.243 452.243 70 455 70 z M 260 90 C 291.423 90 321.67975 98.494203 348.21875 114.6582 C 348.15375 114.7582 344.9352 117.48903 345.1582 122.33203 L 345.97266 140.03711 C 321.74266 122.62311 292.04805 112.35352 259.99805 112.35352 C 178.58505 112.35352 112.35156 178.58895 112.35156 260.00195 C 112.35156 341.41495 178.58505 407.64844 259.99805 407.64844 C 341.41105 407.64844 407.64648 341.41495 407.64648 260.00195 C 407.64648 227.70995 397.2175 197.81147 379.5625 173.48047 C 397.5345 174.30447 397.21527 174.29883 397.57227 174.29883 C 402.19427 174.29883 404.79097 171.1817 404.91797 171.0957 C 421.35797 197.7957 430 228.292 430 260 C 430 353.738 353.738 430 260 430 C 166.262 430 90 353.738 90 260 C 90 166.262 166.262 90 260 90 z M 387.57227 103.58594 L 387.57227 117.72852 C 379.86627 125.43452 379.16789 126.13584 365.96289 139.33984 L 365.33984 125.82031 L 387.57227 103.58594 z M 90 110 A 10 10 0 0 0 90 130 A 10 10 0 0 0 90 110 z M 401.71484 131.87109 L 415.85742 131.87109 L 393.62305 154.10547 L 380.10547 153.48242 C 382.02647 151.56142 372.60884 160.97909 401.71484 131.87109 z M 260 132.35352 C 291.459 132.35352 320.29141 143.79833 342.56641 162.73633 L 326.70703 178.5957 C 308.53203 163.6757 285.295 154.70508 260 154.70508 C 201.941 154.70508 154.70508 201.941 154.70508 260 C 154.70508 318.06 201.941 365.29492 260 365.29492 C 318.06 365.29492 365.29492 318.06 365.29492 260 C 365.29492 234.422 356.12334 210.94855 340.90234 192.68555 L 356.75586 176.83203 C 375.99886 199.18703 387.64844 228.258 387.64844 260 C 387.64844 330.385 330.38595 387.64648 260.00195 387.64648 C 189.61795 387.64648 132.35352 330.385 132.35352 260 C 132.35352 189.615 189.615 132.35352 260 132.35352 z M 460 170 A 10 10 0 0 0 460 190 A 10 10 0 0 0 460 170 z M 260 174.70508 C 279.777 174.70508 297.98866 181.49008 312.47266 192.83008 L 296.51953 208.7832 C 286.21253 201.4132 273.609 197.05859 260 197.05859 C 225.294 197.05859 197.05859 225.29205 197.05859 259.99805 C 197.05859 294.70405 225.294 322.93945 260 322.93945 C 294.706 322.93945 322.94141 294.70405 322.94141 259.99805 C 322.94141 246.10405 318.40891 233.25603 310.75391 222.83203 L 326.68164 206.9043 C 338.31564 221.4853 345.29297 239.93705 345.29297 259.99805 C 345.29297 307.02905 307.02905 345.29297 259.99805 345.29297 C 212.96705 345.29297 174.70508 307.031 174.70508 260 C 174.70508 212.969 212.969 174.70508 260 174.70508 z M 260 217.05859 C 268.079 217.05859 275.64252 219.30422 282.10352 223.19922 L 252.65234 252.65234 C 248.74734 256.55734 248.74734 262.88892 252.65234 266.79492 C 256.55834 270.69992 262.88792 270.69892 266.79492 266.79492 L 296.37305 237.2168 C 300.52605 243.8248 302.94141 251.634 302.94141 260 C 302.94141 283.678 283.677 302.94141 260 302.94141 C 236.323 302.94141 217.05859 283.678 217.05859 260 C 217.05859 236.322 236.323 217.05859 260 217.05859 z M 450 370 A 10 10 0 0 0 450 390 A 10 10 0 0 0 450 370 z M 70 380 C 53.458 380 40 393.458 40 410 C 40 426.542 53.458 440 70 440 C 86.542 440 100 426.542 100 410 C 100 393.458 86.542 380 70 380 z M 70 400 C 75.514 400 80 404.486 80 410 C 80 415.514 75.514 420 70 420 C 64.486 420 60 415.514 60 410 C 60 404.486 64.486 400 70 400 z M 160 450 A 10 10 0 0 0 160 470 A 10 10 0 0 0 160 450 z M 400 450 A 10 10 0 0 0 400 470 A 10 10 0 0 0 400 450 z"/></svg>