<svg xmlns="http://www.w3.org/2000/svg"  viewBox="0 0 80 80" width="480px" height="480px"><path d="M 40 6 C 25.652441 6 14 17.652441 14 32 C 14 46.012429 25.115308 57.447742 39 57.974609 L 39 70.080078 C 37.676084 68.669349 36.172382 67.583621 34.636719 66.751953 C 32.446224 62.857346 29.100183 60.29903 25.132812 59.386719 C 24.104613 59.15028 23.038668 59.021073 21.943359 59.001953 C 18.657435 58.944593 15.108969 59.868895 11.527344 61.794922 L 10.595703 62.296875 L 11.146484 63.199219 C 14.1987 68.182525 18.564564 70.414642 22.859375 70.894531 C 26.953212 71.351965 30.963192 70.290026 34.019531 68.744141 C 35.900407 69.811228 37.692613 71.285593 39.03125 73.349609 A 1.0001 1.0001 0 0 0 40.037109 74.03125 A 1.0001 1.0001 0 0 0 40.96875 73.349609 C 42.307387 71.285593 44.099593 69.811228 45.980469 68.744141 C 49.036776 70.289998 53.046766 71.35184 57.140625 70.894531 C 61.435459 70.414772 65.801311 68.183032 68.853516 63.199219 L 69.404297 62.296875 L 68.472656 61.794922 C 64.891031 59.868895 61.342565 58.944593 58.056641 59.001953 C 56.961332 59.021073 55.895387 59.15028 54.867188 59.386719 C 50.899817 60.29903 47.553776 62.857346 45.363281 66.751953 C 43.827618 67.583621 42.323916 68.669348 41 70.080078 L 41 57.974609 C 54.884692 57.447742 66 46.012429 66 32 C 66 17.652441 54.347559 6 40 6 z M 40 8 C 53.266679 8 64 18.733321 64 32 C 64 45.266679 53.266679 56 40 56 C 26.733321 56 16 45.266679 16 32 C 16 18.733321 26.733321 8 40 8 z M 40 11 A 1.0001 1.0001 0 1 0 40 13 A 1.0001 1.0001 0 1 0 40 11 z M 45.181641 11.677734 L 44.380859 12.080078 L 44.222656 12.960938 L 44.835938 13.615234 L 45.181641 13.677734 L 45.982422 13.277344 L 46.140625 12.394531 L 45.529297 11.740234 L 45.181641 11.677734 z M 34.826172 11.6875 L 34.025391 12.089844 L 33.867188 12.970703 L 34.478516 13.625 L 34.826172 13.6875 L 35.626953 13.287109 L 35.785156 12.404297 L 35.171875 11.75 L 34.826172 11.6875 z M 30.005859 13.685547 L 29.205078 14.085938 L 29.046875 14.96875 L 29.658203 15.623047 L 30.005859 15.685547 L 30.806641 15.283203 L 30.964844 14.402344 L 30.351562 13.746094 L 30.005859 13.685547 z M 49.998047 13.689453 L 49.197266 14.091797 L 49.039062 14.972656 L 49.650391 15.626953 L 49.998047 15.689453 L 50.798828 15.289062 L 50.957031 14.40625 L 50.34375 13.751953 L 49.998047 13.689453 z M 25.863281 16.861328 L 25.0625 17.261719 L 24.904297 18.144531 L 25.517578 18.798828 L 25.863281 18.861328 L 26.664062 18.458984 L 26.822266 17.576172 L 26.210938 16.921875 L 25.863281 16.861328 z M 54.138672 16.863281 L 53.337891 17.265625 L 53.179688 18.148438 L 53.792969 18.802734 L 54.138672 18.863281 L 54.941406 18.462891 L 55.097656 17.580078 L 54.486328 16.925781 L 54.138672 16.863281 z M 39.082031 19.574219 L 39.082031 21.494141 C 35.326031 21.842141 33.044922 23.972547 33.044922 27.185547 C 33.044922 29.899547 34.74175 31.763641 37.84375 32.556641 L 39.082031 32.876953 L 39.082031 39.220703 C 37.009031 38.983703 35.672203 37.828828 35.533203 36.173828 L 32.585938 36.173828 C 32.599938 39.401828 35.103031 41.585609 39.082031 41.849609 L 39.082031 43.65625 L 40.988281 43.65625 L 40.988281 41.835938 C 45.064281 41.487938 47.416016 39.358219 47.416016 35.949219 C 47.416016 33.069219 45.77325 31.304078 42.28125 30.455078 L 40.988281 30.162109 L 40.988281 24.166016 C 42.824281 24.389016 44.076813 25.584234 44.132812 27.115234 L 47.039062 27.115234 C 46.955063 24.012234 44.591281 21.814141 40.988281 21.494141 L 40.988281 19.574219 L 39.082031 19.574219 z M 22.689453 21.001953 L 21.888672 21.404297 L 21.730469 22.285156 L 22.341797 22.939453 L 22.689453 23.001953 L 23.490234 22.601562 L 23.648438 21.71875 L 23.037109 21.064453 L 22.689453 21.001953 z M 57.314453 21.005859 L 56.513672 21.40625 L 56.355469 22.289062 L 56.96875 22.943359 L 57.314453 23.005859 L 58.115234 22.603516 L 58.273438 21.722656 L 57.662109 21.068359 L 57.314453 21.005859 z M 39.082031 24.152344 L 39.082031 29.759766 C 37.078031 29.355766 36.021484 28.368547 36.021484 26.935547 C 36.021484 25.418547 37.301031 24.249344 39.082031 24.152344 z M 20.677734 25.818359 L 19.876953 26.21875 L 19.71875 27.101562 L 20.330078 27.755859 L 20.677734 27.818359 L 21.478516 27.416016 L 21.636719 26.535156 L 21.025391 25.880859 L 20.677734 25.818359 z M 59.3125 25.826172 L 58.511719 26.226562 L 58.353516 27.109375 L 58.964844 27.763672 L 59.3125 27.826172 L 60.113281 27.423828 L 60.271484 26.542969 L 59.658203 25.888672 L 59.3125 25.826172 z M 20 31 A 1.0001 1.0001 0 1 0 20 33 A 1.0001 1.0001 0 1 0 20 31 z M 60 31 A 1.0001 1.0001 0 0 0 59.929688 32.998047 A 1.0001 1.0001 0 0 0 60 33 A 1.0001 1.0001 0 1 0 60 31 z M 40.988281 33.238281 C 43.353281 33.711281 44.451172 34.670484 44.451172 36.271484 C 44.451172 38.038484 43.186281 39.122047 40.988281 39.248047 L 40.988281 33.238281 z M 20.6875 36.173828 L 19.886719 36.576172 L 19.728516 37.457031 L 20.341797 38.111328 L 20.6875 38.173828 L 21.488281 37.773438 L 21.646484 36.890625 L 21.035156 36.236328 L 20.6875 36.173828 z M 59.322266 36.181641 L 58.521484 36.583984 L 58.363281 37.464844 L 58.974609 38.119141 L 59.322266 38.181641 L 60.123047 37.78125 L 60.28125 36.898438 L 59.669922 36.244141 L 59.322266 36.181641 z M 22.685547 40.994141 L 21.884766 41.396484 L 21.726562 42.277344 L 22.337891 42.931641 L 22.685547 42.994141 L 23.486328 42.59375 L 23.644531 41.710938 L 23.03125 41.056641 L 22.685547 40.994141 z M 57.310547 40.998047 L 56.509766 41.398438 L 56.351562 42.28125 L 56.962891 42.935547 L 57.310547 42.998047 L 58.111328 42.595703 L 58.269531 41.714844 L 57.658203 41.060547 L 57.310547 40.998047 z M 25.861328 45.136719 L 25.058594 45.537109 L 24.902344 46.419922 L 25.513672 47.074219 L 25.861328 47.136719 L 26.662109 46.734375 L 26.820312 45.851562 L 26.207031 45.197266 L 25.861328 45.136719 z M 54.136719 45.138672 L 53.335938 45.541016 L 53.177734 46.423828 L 53.789062 47.078125 L 54.136719 47.138672 L 54.9375 46.738281 L 55.095703 45.855469 L 54.482422 45.201172 L 54.136719 45.138672 z M 30.001953 48.310547 L 29.201172 48.710938 L 29.042969 49.59375 L 29.65625 50.248047 L 30.001953 50.310547 L 30.802734 49.908203 L 30.960938 49.027344 L 30.349609 48.373047 L 30.001953 48.310547 z M 49.994141 48.314453 L 49.193359 48.716797 L 49.035156 49.597656 L 49.648438 50.253906 L 49.994141 50.314453 L 50.794922 49.914062 L 50.953125 49.03125 L 50.341797 48.376953 L 49.994141 48.314453 z M 45.173828 50.3125 L 44.373047 50.712891 L 44.214844 51.595703 L 44.828125 52.25 L 45.173828 52.3125 L 45.974609 51.910156 L 46.132812 51.029297 L 45.521484 50.375 L 45.173828 50.3125 z M 34.818359 50.322266 L 34.017578 50.722656 L 33.859375 51.605469 L 34.470703 52.259766 L 34.818359 52.322266 L 35.619141 51.919922 L 35.777344 51.039062 L 35.164062 50.384766 L 34.818359 50.322266 z M 40 51 A 1.0001 1.0001 0 1 0 40 53 A 1.0001 1.0001 0 1 0 40 51 z M 21.904297 61.001953 C 22.86845 61.018613 23.797872 61.131812 24.685547 61.335938 C 27.174364 61.90825 29.328833 63.235832 31.072266 65.240234 C 27.238196 63.988104 24 64 24 64 A 1.0001 1.0001 0 1 0 24 66 C 24 66 27.600761 66.043031 31.517578 67.560547 C 29.020415 68.576051 26.063841 69.239428 23.082031 68.90625 C 19.599175 68.517086 16.227087 66.830738 13.558594 63.070312 C 16.496239 61.666983 19.330796 60.957471 21.904297 61.001953 z M 58.095703 61.001953 C 60.669204 60.957473 63.503761 61.666982 66.441406 63.070312 C 63.77291 66.831118 60.400804 68.517196 56.917969 68.90625 C 53.936178 69.239334 50.979604 68.576061 48.482422 67.560547 C 52.399239 66.043031 56 66 56 66 A 1.0001 1.0001 0 1 0 56 64 C 56 64 52.761804 63.988105 48.927734 65.240234 C 50.671167 63.235832 52.825636 61.90825 55.314453 61.335938 C 56.202128 61.131813 57.13155 61.018618 58.095703 61.001953 z"/></svg>