<svg xmlns="http://www.w3.org/2000/svg"  viewBox="0 0 50 50" width="500px" height="500px"><path d="M 25 2 C 12.309534 2 2 12.309534 2 25 C 2 37.690466 12.309534 48 25 48 C 37.690466 48 48 37.690466 48 25 A 1.0001 1.0001 0 1 0 46 25 C 46 36.609534 36.609534 46 25 46 C 13.390466 46 4 36.609534 4 25 C 4 13.390466 13.390466 4 25 4 C 31.692686 4 37.635193 7.130711 41.480469 12 L 35 12 A 1.0001 1.0001 0 1 0 35 14 L 45 14 L 45 4 A 1.0001 1.0001 0 0 0 43.984375 2.9863281 A 1.0001 1.0001 0 0 0 43 4 L 43 10.699219 C 38.785186 5.4020866 32.287796 2 25 2 z M 24 13 C 23.448 13 23 13.448 23 14 L 23 27 C 23 27.552 23.448 28 24 28 L 26 28 C 26.552 28 27 27.552 27 27 L 27 14 C 27 13.448 26.552 13 26 13 L 24 13 z M 24 32 C 23.448 32 23 32.448 23 33 L 23 35 C 23 35.552 23.448 36 24 36 L 26 36 C 26.552 36 27 35.552 27 35 L 27 33 C 27 32.448 26.552 32 26 32 L 24 32 z"/></svg>