<svg xmlns="http://www.w3.org/2000/svg"  viewBox="0 0 50 50" width="500px" height="500px"><path d="M 7 2 L 7 48 L 34.175781 48 C 34.246781 47.798 34.337078 47.600156 34.455078 47.410156 L 35.337891 46 L 9 46 L 9 4 L 29 4 L 29 16 L 41 16 L 41 32.03125 C 41.62 32.86425 42 33.885 42 35 L 42 35.339844 L 43 33.740234 L 43 14.585938 L 30.414062 2 L 7 2 z M 31 5.4140625 L 39.585938 14 L 31 14 L 31 5.4140625 z M 14 20 A 1.0001 1.0001 0 1 0 14 22 L 36 22 A 1.0001 1.0001 0 1 0 36 20 L 14 20 z M 14 26 A 1.0001 1.0001 0 1 0 14 28 L 36 28 A 1.0001 1.0001 0 1 0 36 26 L 14 26 z M 46.951172 31.988281 A 1.0001 1.0001 0 0 0 46.152344 32.470703 L 36.152344 48.470703 A 1.0001 1.0001 0 1 0 37.847656 49.529297 L 47.847656 33.529297 A 1.0001 1.0001 0 0 0 47.050781 31.988281 A 1.0001 1.0001 0 0 0 46.951172 31.988281 z M 14 32 A 1.0001 1.0001 0 1 0 14 34 L 30 34 A 1.0001 1.0001 0 1 0 30 32 L 14 32 z M 37 32 C 35.35503 32 34 33.35503 34 35 L 34 37 L 34 38 L 34.416016 38 C 34.85942 39.106694 35.743378 40 37 40 C 38.64497 40 40 38.64497 40 37 L 40 35 C 40 33.35503 38.64497 32 37 32 z M 37 34 C 37.56503 34 38 34.43497 38 35 L 38 37 C 38 37.56503 37.56503 38 37 38 C 36.43497 38 36 37.56503 36 37 L 36 35 C 36 34.43497 36.43497 34 37 34 z M 14 38 A 1.0001 1.0001 0 1 0 14 40 L 30 40 A 1.0001 1.0001 0 1 0 30 38 L 14 38 z M 47 42 C 45.35503 42 44 43.35503 44 45 L 44 47 L 44 48 L 44.416016 48 C 44.85942 49.106694 45.743378 50 47 50 C 48.64497 50 50 48.64497 50 47 L 50 45 C 50 43.35503 48.64497 42 47 42 z M 47 44 C 47.56503 44 48 44.43497 48 45 L 48 47 C 48 47.56503 47.56503 48 47 48 C 46.43497 48 46 47.56503 46 47 L 46 45 C 46 44.43497 46.43497 44 47 44 z"/></svg>